<?xml version="1.0" standalone="no"?>
<!DOCTYPE svg PUBLIC "-//W3C//DTD SVG 20010904//EN"
 "http://www.w3.org/TR/2001/REC-SVG-20010904/DTD/svg10.dtd">
<svg version="1.0" xmlns="http://www.w3.org/2000/svg"
 width="377.000000pt" height="377.000000pt" viewBox="0 0 377.000000 377.000000"
 preserveAspectRatio="xMidYMid meet">

<g transform="translate(0.000000,377.000000) scale(0.100000,-0.100000)"
fill="#000000" stroke="none">
<path d="M2880 3539 c-76 -32 -101 -71 -115 -182 -7 -57 -36 -92 -68 -84 -35
9 -148 52 -197 75 -52 25 -121 28 -177 8 -23 -8 -58 -12 -86 -9 -25 3 -75 0
-110 -7 -59 -11 -66 -10 -101 11 -31 18 -47 21 -100 17 -37 -3 -87 -16 -119
-31 -49 -22 -65 -25 -130 -20 -90 7 -131 -9 -198 -79 -25 -26 -54 -48 -63 -48
-55 0 -130 -78 -172 -178 -16 -39 -44 -82 -65 -102 -35 -34 -79 -128 -79 -170
0 -13 -13 -26 -37 -37 -54 -26 -69 -62 -54 -129 9 -41 9 -58 0 -75 -7 -15 -9
-44 -5 -86 5 -45 2 -79 -10 -119 -31 -109 -2 -204 91 -297 30 -30 58 -68 65
-90 29 -92 152 -172 283 -184 57 -6 58 -5 95 34 50 52 64 102 71 258 8 156 23
190 105 233 48 26 58 27 191 27 117 0 146 -3 174 -18 57 -32 125 -32 216 -2
193 64 287 37 325 -95 6 -19 15 -91 21 -160 13 -174 40 -261 99 -321 40 -42
51 -47 103 -53 153 -17 276 54 308 178 5 23 12 48 15 57 2 9 16 21 30 28 36
16 60 81 69 181 13 157 6 195 -54 278 l-32 43 16 45 c19 56 13 98 -25 184 -16
36 -35 102 -44 148 -16 88 -42 151 -82 193 -14 14 -29 41 -34 60 -6 19 -32 58
-60 87 -27 28 -53 64 -56 78 -8 31 -2 37 92 94 65 40 94 80 94 130 0 41 -28
92 -64 115 -32 21 -93 28 -126 14z m115 -60 c28 -25 35 -38 35 -68 0 -43 -26
-72 -105 -116 -27 -16 -58 -38 -67 -49 -33 -40 -17 -95 42 -151 40 -38 60 -76
60 -113 0 -48 -117 -209 -137 -189 -3 4 -1 17 5 30 20 40 23 66 12 87 -14 26
-42 26 -65 0 -26 -28 -39 -25 -19 5 13 20 14 28 4 40 -18 21 -22 20 -73 -25
-25 -22 -50 -40 -55 -40 -20 0 -21 31 -2 72 37 81 24 100 -44 62 -46 -26 -56
-21 -35 17 6 12 8 27 5 35 -5 13 -10 12 -42 -1 -47 -20 -46 -20 -42 17 4 48
-21 47 -91 -3 -34 -24 -64 -40 -67 -36 -17 17 162 213 205 224 25 6 62 -2 141
-33 40 -15 49 -16 74 -3 46 22 68 60 75 133 5 50 13 72 31 92 50 53 104 58
155 13z m-985 -182 c42 -22 44 -22 130 -8 81 14 89 14 104 -2 16 -16 20 -15
59 5 40 20 147 32 161 17 3 -3 -29 -41 -72 -85 -42 -43 -91 -100 -107 -126
-28 -45 -33 -48 -72 -48 -36 0 -43 -3 -43 -19 0 -23 7 -25 115 -46 144 -27
178 -41 214 -85 35 -44 81 -71 151 -90 55 -15 217 -95 247 -122 22 -21 54 -21
60 -1 5 13 -29 50 -62 69 -18 10 -16 16 39 87 32 43 60 77 62 77 2 0 15 -20
29 -44 15 -26 32 -78 41 -130 8 -47 28 -114 44 -148 35 -73 37 -116 10 -177
l-20 -43 34 -39 c72 -79 80 -121 59 -291 -11 -94 -19 -110 -61 -127 -23 -10
-29 -21 -39 -72 -22 -115 -90 -169 -215 -169 -54 0 -78 5 -94 18 -54 45 -81
131 -93 297 -6 72 -17 154 -26 183 -20 66 -72 126 -131 148 -61 23 -176 14
-267 -20 -84 -32 -93 -32 -186 0 -99 34 -263 39 -354 10 -131 -42 -187 -134
-187 -305 0 -112 -18 -186 -54 -220 -21 -20 -32 -23 -68 -17 -102 16 -195 86
-219 165 -8 27 -28 54 -64 85 -88 76 -117 172 -81 273 9 26 12 62 9 107 -4 46
-2 75 7 92 11 20 11 31 2 58 -25 69 -12 101 42 108 27 3 30 8 46 73 20 87 44
133 74 145 17 6 29 25 44 69 25 75 83 164 117 179 14 7 39 12 55 12 22 0 33 8
51 36 33 55 94 94 144 94 23 0 56 -5 73 -11 25 -9 37 -7 74 12 101 52 156 59
218 26z m382 -269 c-6 -6 -15 -8 -19 -4 -4 4 -1 11 7 16 19 12 27 3 12 -12z
m98 -23 c0 -8 -4 -15 -9 -15 -13 0 -22 16 -14 24 11 11 23 6 23 -9z m91 -57
c-11 -30 -41 -37 -41 -10 0 20 12 30 37 31 9 1 10 -6 4 -21z m205 -116 c-11
-12 -19 -13 -27 -5 -8 8 -4 15 13 27 28 20 39 3 14 -22z"/>
<path d="M1680 2071 c-5 -11 -10 -36 -10 -56 0 -28 -5 -38 -20 -42 -11 -3 -20
-11 -20 -18 0 -8 9 -17 20 -20 16 -5 20 -15 20 -46 0 -41 26 -79 55 -79 19 0
20 26 2 33 -8 3 -19 29 -25 59 -13 68 1 146 31 170 22 18 22 18 -10 18 -22 0
-36 -6 -43 -19z"/>
<path d="M1870 2081 c0 -5 6 -11 14 -14 34 -13 34 -211 0 -224 -16 -6 -19 -33
-3 -33 30 0 49 22 49 56 0 42 15 74 35 74 21 0 18 15 -6 32 -14 9 -23 27 -25
53 -3 22 -6 46 -9 53 -5 14 -55 17 -55 3z"/>
<path d="M2070 1932 c0 -87 3 -161 6 -165 3 -3 12 -3 20 0 11 4 14 37 14 164
0 152 -1 159 -20 159 -19 0 -20 -7 -20 -158z"/>
<path d="M2271 2061 c-12 -12 -21 -34 -21 -50 0 -39 -9 -61 -26 -61 -22 0 -17
-27 6 -33 14 -4 20 -14 20 -35 0 -62 37 -109 64 -82 8 8 4 16 -12 29 -21 16
-24 25 -24 97 0 92 7 124 29 124 8 0 13 5 11 12 -7 20 -26 20 -47 -1z"/>
<path d="M2410 2071 c0 -5 9 -12 19 -16 42 -13 41 -212 0 -222 -22 -6 -25 -21
-5 -29 30 -12 54 14 61 65 5 37 12 52 26 56 25 8 24 22 -1 35 -13 7 -20 21
-20 40 0 54 -16 80 -50 80 -16 0 -30 -4 -30 -9z"/>
<path d="M1754 1965 c-16 -24 -16 -27 1 -45 23 -25 57 -26 78 -2 22 24 21 35
-1 55 -27 24 -59 21 -78 -8z"/>
<path d="M2332 1968 c-7 -7 -12 -21 -12 -33 0 -28 19 -45 50 -45 31 0 50 17
50 45 0 28 -19 45 -50 45 -14 0 -31 -5 -38 -12z"/>
<path d="M180 1960 c0 -5 25 -10 55 -10 l55 0 0 -105 c0 -86 3 -105 15 -105
11 0 15 20 17 103 l3 102 58 3 c33 2 55 7 52 13 -8 12 -255 12 -255 -1z"/>
<path d="M477 1963 c-4 -3 -7 -55 -7 -115 0 -89 3 -108 15 -108 12 0 15 15 15
75 l0 75 83 0 c45 0 88 -4 96 -9 9 -6 14 -30 15 -71 1 -41 5 -65 14 -67 9 -4
12 14 12 65 0 90 -7 96 -124 102 -90 5 -91 5 -94 33 -3 26 -12 34 -25 20z"/>
<path d="M792 1894 c-29 -20 -32 -112 -4 -137 21 -19 128 -25 117 -7 -3 6 -26
10 -50 10 -41 0 -55 10 -55 41 0 5 50 9 110 9 l110 0 0 38 c0 21 -5 43 -12 50
-19 19 -188 16 -216 -4z m202 -27 c18 -28 -10 -37 -104 -35 -74 3 -85 5 -88
22 -6 29 16 36 102 34 63 -2 81 -7 90 -21z"/>
<path d="M415 1543 c-41 -10 -45 -22 -45 -129 0 -121 18 -142 22 -26 l3 77 38
3 c47 4 49 22 2 22 -24 0 -35 5 -35 15 0 10 10 15 34 15 38 0 55 14 30 24 -17
6 -18 6 -49 -1z"/>
<path d="M959 1505 c-1 -153 0 -187 5 -193 11 -11 26 21 26 55 l0 31 116 4
c131 3 144 11 144 80 0 56 -30 68 -175 68 l-115 0 -1 -45z m259 -18 c6 -50
-10 -57 -124 -57 l-104 0 0 45 0 46 113 -3 112 -3 3 -28z"/>
<path d="M190 1481 c0 -6 17 -11 39 -11 22 0 44 -6 51 -15 11 -13 2 -15 -73
-15 -86 0 -135 -11 -149 -33 -15 -24 -7 -56 19 -77 25 -19 38 -21 120 -18 55
2 97 8 104 15 18 18 22 115 6 137 -16 22 -117 36 -117 17z m100 -93 c0 -45
-11 -49 -111 -46 -81 3 -94 5 -97 21 -8 42 3 47 108 47 97 0 100 -1 100 -22z"/>
<path d="M532 1474 c-19 -13 -22 -24 -22 -90 0 -59 3 -74 15 -74 12 0 15 14
15 68 0 75 9 92 52 92 15 0 28 5 28 10 0 16 -63 12 -88 -6z"/>
<path d="M690 1478 c-23 -12 -25 -19 -25 -78 0 -59 2 -66 25 -78 16 -8 52 -12
103 -10 69 3 81 6 98 27 23 28 25 98 5 127 -12 16 -29 19 -98 22 -54 2 -92 -2
-108 -10z m178 -76 l3 -63 -88 3 -88 3 -3 54 c-2 36 1 57 10 63 7 4 47 7 88 6
l75 -3 3 -63z"/>
<path d="M1323 1480 c-21 -9 -23 -16 -23 -90 0 -47 4 -80 10 -80 6 0 10 29 10
68 0 77 9 92 57 92 18 0 33 5 33 10 0 12 -57 12 -87 0z"/>
<path d="M1470 1477 c-20 -10 -26 -21 -28 -56 -7 -91 16 -111 123 -111 107 0
130 20 123 111 -4 56 -27 69 -123 69 -38 0 -81 -6 -95 -13z m179 -21 c7 -8 11
-36 9 -63 l-3 -48 -84 -3 c-61 -2 -87 1 -92 10 -13 20 -11 92 3 106 18 18 152
16 167 -2z"/>
<path d="M1762 1480 c-21 -9 -23 -15 -20 -77 3 -61 6 -69 28 -80 14 -7 62 -13
110 -13 77 -1 83 -2 66 -15 -11 -8 -35 -15 -53 -15 -18 0 -33 -4 -33 -10 0
-14 66 -13 93 1 33 18 37 28 37 105 0 100 -7 107 -116 111 -49 2 -99 -2 -112
-7z m179 -20 c15 -9 19 -22 19 -66 l0 -55 -92 3 -93 3 -3 54 c-2 37 1 57 10
62 19 12 136 11 159 -1z"/>
<path d="M2062 1474 c-19 -13 -22 -24 -22 -90 0 -56 3 -75 13 -72 7 3 13 30
15 74 3 73 10 84 55 84 15 0 27 5 27 10 0 16 -63 12 -88 -6z"/>
<path d="M2320 1481 c0 -6 17 -11 39 -11 22 0 44 -6 51 -15 11 -13 1 -15 -78
-15 -50 0 -102 -4 -115 -9 -30 -11 -41 -51 -26 -85 15 -32 51 -40 155 -34 60
3 79 7 90 23 18 24 18 105 1 129 -16 22 -117 36 -117 17z m100 -93 c0 -45 -11
-49 -111 -46 -81 3 -94 5 -97 21 -8 42 3 47 108 47 97 0 100 -1 100 -22z"/>
<path d="M2528 1479 c-27 -10 -28 -13 -28 -90 0 -46 4 -79 10 -79 6 0 10 30
10 70 0 77 10 90 70 90 60 0 70 -13 70 -91 0 -52 3 -70 13 -67 8 3 13 30 15
76 3 80 11 87 83 80 33 -3 34 -5 37 -48 7 -125 32 -153 32 -36 0 101 -12 108
-155 97 -16 -1 -52 0 -80 3 -27 3 -62 1 -77 -5z"/>
<path d="M2925 1479 c-31 -19 -35 -30 -30 -84 2 -27 4 -58 5 -67 0 -10 5 -18
10 -18 6 0 10 30 10 70 0 77 10 90 70 90 60 0 70 -13 70 -91 0 -52 3 -70 12
-67 8 3 14 30 16 74 2 38 9 72 15 76 16 10 79 10 94 0 7 -4 13 -37 15 -76 2
-44 8 -71 16 -74 9 -3 12 16 12 71 0 102 -11 109 -155 98 -16 -1 -55 1 -85 4
-35 3 -62 1 -75 -6z"/>
<path d="M3330 1483 c-27 -10 -40 -36 -40 -84 0 -62 33 -92 94 -87 55 4 48 22
-11 28 -40 4 -48 8 -48 25 0 19 8 20 108 23 l107 3 0 40 c0 33 -4 41 -26 49
-26 10 -158 12 -184 3z m177 -24 c6 -6 8 -19 6 -30 -5 -17 -15 -19 -94 -19
-71 0 -91 3 -95 15 -13 32 15 45 95 45 42 0 82 -5 88 -11z"/>
<path d="M3612 1474 c-19 -13 -22 -24 -22 -90 0 -59 3 -74 15 -74 12 0 15 15
15 74 0 79 5 86 56 86 13 0 24 5 24 10 0 16 -63 12 -88 -6z"/>
</g>
</svg>
